<svg width="18" height="16" viewBox="0 0 18 16" fill="none" xmlns="http://www.w3.org/2000/svg">
<path fill-rule="evenodd" clip-rule="evenodd" d="M2.31001 15.39H15.23C15.8409 15.3828 16.4252 15.1391 16.86 14.71C17.2909 14.2763 17.535 13.6913 17.54 13.08V2.92C17.535 2.3087 17.2909 1.72365 16.86 1.29C16.4266 0.860038 15.8405 0.619154 15.23 0.619997H2.31001C1.69948 0.619154 1.11345 0.860038 0.680007 1.29C0.243559 1.71991 -0.00151852 2.30737 7.0802e-06 2.92V13.08C-0.00151852 13.6926 0.243559 14.2801 0.680007 14.71C1.11244 15.1427 1.69827 15.3871 2.31001 15.39ZM1.31001 1.94C1.57788 1.68052 1.93708 1.53684 2.31001 1.54L15.23 1.51C15.605 1.50617 15.9656 1.65403 16.23 1.92C16.4931 2.18626 16.6405 2.54565 16.64 2.92V13.08C16.6427 13.4548 16.495 13.815 16.23 14.08C15.9646 14.3433 15.6038 14.4876 15.23 14.48H2.31001C1.93625 14.4876 1.5754 14.3433 1.31001 14.08C1.045 13.815 0.897313 13.4548 0.900007 13.08V2.94C0.897313 2.56522 1.045 2.20501 1.31001 1.94Z" fill="#1D1D1B"/>
<path d="M8.7699 9.10999C8.57692 9.10792 8.39025 9.041 8.2399 8.91999L3.8599 5.31999C3.82272 5.27836 3.79234 5.23111 3.7699 5.17999C3.761 5.12032 3.761 5.05966 3.7699 4.99999C3.75508 4.94091 3.75508 4.87908 3.7699 4.81999C3.76095 4.76704 3.76095 4.71295 3.7699 4.65999C3.84888 4.56887 3.95987 4.51158 4.0799 4.49999C4.20214 4.48542 4.32502 4.52156 4.4199 4.59999L8.7699 8.15999L13.0899 4.59999C13.1853 4.52259 13.3078 4.48658 13.4299 4.49999C13.5499 4.51158 13.6609 4.56887 13.7399 4.65999C13.78 4.7055 13.8075 4.76063 13.8199 4.81999C13.8347 4.87908 13.8347 4.94091 13.8199 4.99999C13.8173 5.06304 13.8002 5.12464 13.7699 5.17999C13.7384 5.23331 13.6978 5.2807 13.6499 5.31999L9.2799 8.90999C9.13786 9.03315 8.9578 9.10376 8.7699 9.10999Z" fill="#1D1D1B"/>
</svg>
